<svg width="128" height="128" viewBox="0 0 128 128" fill="none" xmlns="http://www.w3.org/2000/svg">
  <defs>
    <linearGradient id="backgroundGradient" x1="0%" y1="0%" x2="100%" y2="100%">
      <stop offset="0%" style="stop-color:#3b82f6;stop-opacity:1" />
      <stop offset="100%" style="stop-color:#8b5cf6;stop-opacity:1" />
    </linearGradient>
    <linearGradient id="iconGradient" x1="0%" y1="0%" x2="100%" y2="100%">
      <stop offset="0%" style="stop-color:#10b981;stop-opacity:1" />
      <stop offset="100%" style="stop-color:#059669;stop-opacity:1" />
    </linearGradient>
  </defs>
  
  <!-- Background circle with gradient -->
  <circle cx="64" cy="64" r="56" fill="url(#backgroundGradient)" stroke="rgba(255,255,255,0.2)" stroke-width="2"/>
  
  <!-- Main form icon -->
  <g transform="translate(32, 28)">
    <!-- Document background -->
    <rect x="8" y="8" width="48" height="64" rx="4" ry="4" fill="white" stroke="rgba(0,0,0,0.1)" stroke-width="1"/>
    
    <!-- Form lines -->
    <rect x="14" y="18" width="36" height="3" rx="1.5" fill="#e2e8f0"/>
    <rect x="14" y="26" width="28" height="3" rx="1.5" fill="#e2e8f0"/>
    <rect x="14" y="34" width="32" height="3" rx="1.5" fill="#e2e8f0"/>
    <rect x="14" y="42" width="24" height="3" rx="1.5" fill="#e2e8f0"/>
    <rect x="14" y="50" width="30" height="3" rx="1.5" fill="#e2e8f0"/>
    <rect x="14" y="58" width="26" height="3" rx="1.5" fill="#e2e8f0"/>
    
    <!-- Copy/paste icon overlay -->
    <g transform="translate(42, 44)">
      <!-- Copy rectangles -->
      <rect x="2" y="2" width="12" height="16" rx="2" fill="none" stroke="url(#iconGradient)" stroke-width="2"/>
      <rect x="6" y="6" width="12" height="16" rx="2" fill="url(#iconGradient)" opacity="0.8"/>
    </g>
  </g>
  
  <!-- Shine effect -->
  <circle cx="64" cy="64" r="56" fill="none" stroke="rgba(255,255,255,0.3)" stroke-width="1" opacity="0.6"/>
  <ellipse cx="48" cy="40" rx="12" ry="8" fill="rgba(255,255,255,0.2)" opacity="0.4"/>
</svg>